<svg xmlns="http://www.w3.org/2000/svg" xmlns:svg="http://www.w3.org/2000/svg" xmlns:xlink="http://www.w3.org/1999/xlink" id="svg4033" width="86" height="86" x="0" y="0" enable-background="new 0 0 86 86" version="1.1" viewBox="0 0 86 86" xml:space="preserve"><metadata id="metadata4056"/><defs id="defs4054"><linearGradient id="linearGradient3492"><stop style="stop-color:#000;stop-opacity:1" id="stop3494" offset="0"/><stop style="stop-color:#000;stop-opacity:0" id="stop3496" offset="1"/></linearGradient><linearGradient id="linearGradient3498" x1="51.494" x2="51.494" y1="59.393" y2="-41.498" gradientUnits="userSpaceOnUse" xlink:href="#linearGradient3492"/></defs><g id="Layer_1"><radialGradient id="SVGID_1_" cx="43.221" cy="43.222" r="42.798" gradientTransform="matrix(0.9977 0 0 0.9977 -0.1211 -0.1227)" gradientUnits="userSpaceOnUse"><stop style="stop-color:#3fa17f" id="stop4038" offset="0"/><stop style="stop-color:#a1d2d4" id="stop4040" offset="1"/></radialGradient><rect style="fill:#917c6f;fill-opacity:1" id="rect3506" width="85.9" height="85.7" x=".364" y=".3" ry=".458"/><g id="g4044" transform="matrix(1.1248823,0,0,0.81267873,-5.0555352,3.8260147)" style="fill:#000"><path id="path4046" d="m 75.098,62.785 c 0,0.891 -0.852,1.614 -1.902,1.614 l -60.392,0 c -1.051,0 -1.902,-0.723 -1.902,-1.614 l 0,-51.242 c 0,-0.891 0.852,-1.614 1.902,-1.614 l 60.392,0 c 1.051,0 1.902,0.723 1.902,1.614 l 0,51.242 z" style="fill:url(#linearGradient3498);fill-opacity:1"/></g><text style="font-style:normal;font-weight:400;font-size:18.20975876px;line-height:125%;font-family:sans-serif;letter-spacing:0;word-spacing:0;fill:#b3b3b3;fill-opacity:1;stroke:none;stroke-width:1px;stroke-linecap:butt;stroke-linejoin:miter;stroke-opacity:1" id="text3500" x="13.675" y="38.764" transform="scale(0.94435796,1.0589205)" xml:space="preserve"><tspan id="tspan3502" x="13.675" y="38.764">SERIES</tspan></text><rect style="fill:#000" id="rect3490" width="56.847" height="10.932" x="14.891" y="62.483" ry=".28"/><rect style="fill:#917c6f;fill-opacity:1" id="rect3516" width="10.568" height="6.924" x="56.483" y="64.487" ry=".454"/><rect style="fill:#917c6f;fill-opacity:1" id="rect3516-3" width="10.568" height="6.924" x="18.767" y="64.487" ry=".454"/><rect style="fill:#917c6f;fill-opacity:1" id="rect3516-0" width="10.568" height="6.924" x="37.625" y="64.487" ry=".454"/></g></svg>